<?xml version="1.0" encoding="UTF-8" standalone="no"?>
<!-- Created with Inkscape (http://www.inkscape.org/) -->

<svg
   width="297mm"
   height="210mm"
   viewBox="0 0 297 210"
   version="1.1"
   id="svg41053"
   inkscape:version="1.1.1 (3bf5ae0d25, 2021-09-20)"
   sodipodi:docname="ShowLocal - logo final.svg"
   xmlns:inkscape="http://www.inkscape.org/namespaces/inkscape"
   xmlns:sodipodi="http://sodipodi.sourceforge.net/DTD/sodipodi-0.dtd"
   xmlns="http://www.w3.org/2000/svg"
   xmlns:svg="http://www.w3.org/2000/svg">
  <sodipodi:namedview
     id="namedview41055"
     pagecolor="#ffffff"
     bordercolor="#666666"
     borderopacity="1.0"
     inkscape:pageshadow="2"
     inkscape:pageopacity="0.0"
     inkscape:pagecheckerboard="true"
     inkscape:document-units="mm"
     showgrid="false"
     inkscape:zoom="0.45424503"
     inkscape:cx="580.0834"
     inkscape:cy="511.83829"
     inkscape:window-width="1366"
     inkscape:window-height="705"
     inkscape:window-x="-8"
     inkscape:window-y="-8"
     inkscape:window-maximized="1"
     inkscape:current-layer="layer1" />
  <defs
     id="defs41050" />
  <g
     inkscape:label="Layer 1"
     inkscape:groupmode="layer"
     id="layer1">
    <path
       id="rect9767-0-4-1-8-2-1-9"
       style="fill:#00adb5;fill-opacity:1;stroke-width:0.264583"
       d="m 282.41823,77.116026 c -73.54555,0.013 -147.09131,0.0208 -220.636719,0.0371 -5.274783,0.29283 -9.575684,5.59989 -8.90625,10.8125 0.01461,11.80517 -0.149968,23.613874 0.166015,35.416014 0.739745,4.95969 5.880035,8.61543 10.799219,7.99218 73.234225,-4.2e-4 146.468635,-0.009 219.702735,-0.0391 5.22573,-0.37994 9.43215,-5.65254 8.77148,-10.82422 -0.0182,-11.78434 0.13165,-23.571864 -0.16016,-35.353504 -0.68239,-4.58623 -5.12732,-8.186 -9.73632,-8.04102 z" />
    <path
       id="rect9767-0-4-1-8-2-1"
       style="fill:#222831;fill-opacity:1;stroke-width:0.264583"
       d="m 282.42097,80.851191 c -73.44146,0 -146.88292,0.01073 -220.324317,0.0236 -3.135242,0.181401 -5.801246,3.210492 -5.511977,6.353102 -0.03076,10.920523 -0.05579,21.841537 0.02146,32.761917 0.06867,1.06416 -0.06366,2.15207 0.145135,3.20012 0.523816,2.08239 2.346764,3.89432 4.499037,4.37236 0.914515,0.21459 2.0198,0.10744 3.010422,0.13719 18.408166,0.0258 36.81648,-0.007 55.22472,0.007 54.56148,6.4e-4 109.12303,-7.2e-4 163.68459,-0.0243 3.00985,-0.23233 5.60454,-3.06128 5.44231,-6.10354 0.0122,-10.95914 0.0558,-21.919798 -0.0272,-32.878866 -0.0551,-1.56408 0.19492,-3.254912 -0.6696,-4.657406 -1.06659,-1.947411 -3.24869,-3.307701 -5.49431,-3.190177 z" />
    <path
       d="m 171.77904,114.98068 c -1.53081,-0.25185 -2.74851,-1.72092 -2.95725,-3.56778 V 90.887714 h -4.34893 v 20.021506 c 0,1.46908 0.27834,2.85422 0.80021,4.11343 0.73062,1.84685 1.9831,3.35791 3.51392,4.28133 1.04374,0.6296 2.19186,0.9654 3.40956,0.9654 h 12.35092 v -5.24673 z"
       style="font-size:38.2142px;line-height:1.25;font-family:Azonix;-inkscape-font-specification:Azonix;fill:#eeeeee;stroke-width:0.264581"
       id="path968" />
    <path
       d="m 196.68953,90.845741 c -6.71473,0 -12.17697,6.589887 -12.17697,14.690829 0,8.10094 5.46224,14.69083 12.17697,14.69083 6.71473,0 12.17697,-6.58989 12.17697,-14.69083 0,-8.100942 -5.46224,-14.690829 -12.17697,-14.690829 z m 0,24.134939 c -4.31413,0 -7.82805,-4.23936 -7.82805,-9.44411 0,-5.20475 3.51392,-9.444105 7.82805,-9.444105 4.31413,0 7.82806,4.239355 7.82806,9.444105 0,5.20475 -3.51393,9.44411 -7.82806,9.44411 z"
       style="font-size:38.2142px;line-height:1.25;font-family:Azonix;-inkscape-font-specification:Azonix;fill:#eeeeee;stroke-width:0.264581"
       id="path970" />
    <path
       d="m 223.33966,96.092465 h 12.17697 v -5.246724 h -12.17697 c -6.71473,0 -12.17696,6.589887 -12.17696,14.690829 0,8.10094 5.46223,14.69083 12.17696,14.69083 h 12.17697 v -5.24672 h -12.17697 c -4.31413,0 -7.82805,-4.23936 -7.82805,-9.44411 0,-5.20475 3.51392,-9.444105 7.82805,-9.444105 z"
       style="font-size:38.2142px;line-height:1.25;font-family:Azonix;-inkscape-font-specification:Azonix;fill:#eeeeee;stroke-width:0.264581"
       id="path972" />
    <path
       d="m 260.21844,114.98068 -10.19386,-24.134939 -10.19386,24.134939 -2.22665,5.24672 h 4.87079 l 2.22665,-5.24672 5.32307,-12.59214 5.32308,12.59214 2.22664,5.24672 h 4.87079 z"
       style="font-size:38.2142px;line-height:1.25;font-family:Azonix;-inkscape-font-specification:Azonix;fill:#eeeeee;stroke-width:0.264581"
       id="path974" />
    <path
       d="m 270.93412,114.98068 c -1.53082,-0.25185 -2.74852,-1.72092 -2.95727,-3.56778 V 90.887714 h -4.34891 v 20.021506 c 0,1.46908 0.27833,2.85422 0.8002,4.11343 0.73061,1.84685 1.98311,3.35791 3.51392,4.28133 1.04375,0.6296 2.19185,0.9654 3.40955,0.9654 h 12.35093 v -5.24673 z"
       style="font-size:38.2142px;line-height:1.25;font-family:Azonix;-inkscape-font-specification:Azonix;fill:#eeeeee;stroke-width:0.264581"
       id="path976" />
    <path
       d="m 81.979249,111.07713 q 0,2.64435 -1.182906,4.44923 -1.148114,1.76289 -2.922472,2.81224 -1.774358,1.04934 -3.861839,1.46909 -2.087481,0.41973 -3.966213,0.41973 -0.800202,0 -1.878733,-0.12592 -1.04374,-0.12593 -2.191854,-0.33579 -1.148115,-0.25184 -2.331021,-0.62961 -1.182906,-0.37776 -2.157063,-0.88145 v -8.56266 l 6.784312,8.18489 q 0.626244,0.0839 1.530819,0.0839 0.904575,0 1.704776,-0.1679 0.730618,-0.12592 1.426445,-0.37775 0.695826,-0.29382 1.217697,-0.75554 0.52187,-0.50368 0.834992,-1.17527 0.347914,-0.67157 0.347914,-1.55302 0,-1.42712 -0.695827,-2.39251 -0.695827,-1.00737 -1.704776,-1.72093 -0.974157,-0.75553 -2.087481,-1.25921 -1.078531,-0.54566 -1.913523,-1.09132 -1.356863,-0.75553 -2.644143,-1.595 -1.287279,-0.83948 -2.33102,-1.88883 -1.008949,-1.09132 -1.635192,-2.47645 -0.591454,-1.42711 -0.591454,-3.315931 0,-2.014742 0.76541,-3.567773 0.800201,-1.595004 2.226646,-2.644349 1.461237,-1.049345 3.513926,-1.595005 2.052689,-0.54566 4.627248,-0.54566 2.191855,0 4.244544,0.377764 2.08748,0.335791 3.339969,0.923425 v 9.234239 h -0.06958 l -6.227649,-8.352757 q -0.139165,-0.04197 -0.278331,-0.04197 -0.104374,-0.04197 -0.278331,-0.08395 -0.243539,0 -0.487079,0 -0.243539,0 -0.52187,0.04197 -0.765409,0.08395 -1.56561,0.293817 -0.765409,0.209869 -1.391654,0.671581 -0.626244,0.461711 -1.043739,1.175267 -0.382706,0.67158 -0.382706,1.678952 0,1.762899 1.182906,2.854218 1.217697,1.091319 2.992055,1.972771 1.391654,0.71355 3.061639,1.55303 1.669984,0.7975 3.131221,2.01474 1.461236,1.17527 2.435394,2.85422 0.974157,1.63698 0.974157,4.07146 z"
       style="font-size:38.2142px;line-height:1.25;font-family:'Blaak ExtraBold PERSONAL USE';-inkscape-font-specification:'Blaak ExtraBold PERSONAL USE';fill:#eeeeee;stroke-width:0.264581"
       id="path979" />
    <path
       d="m 97.530941,97.855382 q 1.496036,0 2.574569,0.545659 1.11332,0.54566 1.84394,1.762899 0.73062,1.17527 1.11332,3.06409 0.3827,1.88882 0.3827,4.57514 l -0.0348,8.52069 2.08748,3.44185 h -9.706788 l 1.913532,-3.44185 0.03478,-8.14292 q 0,-1.84685 -0.173956,-3.06409 -0.139168,-1.25921 -0.48708,-2.01474 -0.313124,-0.75553 -0.800204,-1.09132 -0.48708,-0.33579 -1.148107,-0.33579 -0.904575,0 -1.809151,0.58763 -0.869788,0.54566 -1.774364,1.55303 v 12.5082 l 2.087479,3.44185 h -9.811155 l 2.017898,-3.44185 -0.03479,-22.623885 -1.913524,-3.399878 7.654089,-2.014743 V 100.7096 Q 94.1214,97.813408 97.53095,97.855382 Z"
       style="font-size:38.2142px;line-height:1.25;font-family:'Blaak ExtraBold PERSONAL USE';-inkscape-font-specification:'Blaak ExtraBold PERSONAL USE';fill:#eeeeee;stroke-width:0.264581"
       id="path981" />
    <path
       d="m 107.27247,108.85252 q 0,-2.5604 0.69583,-4.65909 0.73062,-2.14067 2.01789,-3.60975 1.28729,-1.511058 3.09643,-2.308561 1.84395,-0.839475 4.10538,-0.839475 2.22665,0 4.07059,0.839475 1.84394,0.797503 3.13122,2.308561 1.28728,1.51106 1.98311,3.60975 0.73062,2.09869 0.73062,4.65909 0,2.5604 -0.69583,4.6591 -0.69583,2.09869 -2.0179,3.60974 -1.28728,1.51106 -3.13122,2.35053 -1.80915,0.7975 -4.07059,0.7975 -2.26143,0 -4.10538,-0.7975 -1.80914,-0.83947 -3.13121,-2.30856 -1.28729,-1.51106 -1.98311,-3.60975 -0.69583,-2.09869 -0.69583,-4.70106 z m 9.91553,-8.982396 q -1.87873,0 -2.95726,2.350536 -1.04374,2.30856 -1.04374,6.67383 0,4.40725 1.04374,6.67384 1.07853,2.26658 2.99205,2.26658 1.87874,0 2.92248,-2.30855 1.07853,-2.35054 1.04373,-6.79976 -0.0695,-4.44923 -1.14811,-6.63186 -1.04374,-2.224616 -2.85289,-2.224616 z"
       style="font-size:38.2142px;line-height:1.25;font-family:'Blaak ExtraBold PERSONAL USE';-inkscape-font-specification:'Blaak ExtraBold PERSONAL USE';fill:#eeeeee;stroke-width:0.264581"
       id="path983" />
    <path
       d="m 145.92563,119.76571 -3.30517,-11.58477 -3.75747,11.58477 h -5.07953 L 127.5906,98.107225 h 9.11533 l -1.84394,4.407245 3.54872,12.80202 3.33997,-10.24161 -1.98311,-6.967655 h 9.28929 l -1.84394,4.617115 3.47913,12.55017 3.44434,-10.53542 -2.43539,-6.631865 h 7.58451 l -3.27038,6.631865 -4.90558,15.02662 z"
       style="font-size:38.2142px;line-height:1.25;font-family:'Blaak ExtraBold PERSONAL USE';-inkscape-font-specification:'Blaak ExtraBold PERSONAL USE';fill:#eeeeee;stroke-width:0.264581"
       id="path985" />
    <g
       id="g20094-7-3-1-6"
       style="fill:#00adb5;fill-opacity:1;stroke-width:1.65839"
       transform="matrix(0.60299187,0,0,0.60299187,11.40065,44.081976)">
      <g
         transform="matrix(2.2887955,0,0,2.454636,-287.8498,240.5841)"
         id="g6180-3-1-3-3-0-1-9-7-7-2-0-1-70-6-3-8-0-5-9-81-95"
         style="fill:#00adb5;fill-opacity:1;stroke-width:1.30007">
        <path
           style="fill:#00adb5;fill-opacity:1;stroke-width:0.28043"
           d="m 129.89805,-39.749633 c -5.92966,-1.445136 -9.91164,-7.445584 -8.88838,-13.393906 0.56333,-3.274722 1.86343,-4.750045 3.70079,-4.199561 1.58713,0.475517 2.09044,1.89607 1.3826,3.902296 -0.54357,1.540649 -0.42459,3.563631 0.29814,5.069003 2.56072,5.333743 9.95904,5.333743 12.53067,0 0.41588,-0.862567 0.52021,-1.424022 0.52105,-2.80413 0.001,-2.200148 -0.56853,-3.577462 -2.05576,-4.968592 -2.02836,-1.897298 -4.23414,-2.426414 -6.82923,-1.638179 -1.80085,0.54699 -2.03115,0.557645 -2.85416,0.132052 -0.73155,-0.3783 -1.28751,-1.327659 -1.28635,-2.196586 0.002,-1.816526 1.88497,-2.853691 5.50097,-3.030691 3.80001,-0.186008 6.35317,0.781037 8.95028,3.390046 2.49187,2.503284 3.44408,4.806928 3.44868,8.343155 0.006,4.704756 -2.57791,8.702206 -6.92227,10.708726 -2.0702,0.956155 -5.21041,1.243647 -7.49703,0.686367 z"
           id="path6142-9-7-3-6-4-2-0-6-9-2-2-3-1-1-1-3-7-0-8-9-5-56"
           inkscape:connector-curvature="0" />
        <path
           style="fill:#00adb5;fill-opacity:1;stroke-width:0.28043"
           d="m 142.86752,-58.469024 c -0.93121,-1.356964 -2.7839,-2.954907 -4.47943,-3.863495 l -1.72562,-0.924711 -1.11467,-4.31306 c -0.61308,-2.372183 -1.12203,-4.65279 -1.13102,-5.068017 -0.0185,-0.85248 0.57271,-1.884171 1.31597,-2.296612 1.11583,-0.619194 3.1139,-0.170172 3.64314,0.818713 0.26005,0.485917 0.92157,2.901067 1.67505,6.115498 0.25028,1.067726 0.8952,3.77633 1.43317,6.019121 0.53797,2.24279 0.95052,4.105397 0.91679,4.139127 -0.0337,0.03373 -0.27375,-0.248224 -0.53338,-0.626564 z"
           id="path6144-6-6-4-1-8-3-7-9-3-7-1-4-7-6-3-8-5-5-0-4-8-16"
           inkscape:connector-curvature="0" />
        <path
           style="fill:#00adb5;fill-opacity:1;stroke-width:0.28043"
           d="m 144.70058,-56.137083 c -0.0787,-0.237272 -0.33805,-1.256466 -0.57629,-2.264874 -0.23824,-1.008408 -1.02504,-4.308653 -1.74844,-7.333877 l -1.31526,-5.500409 0.6899,-0.61775 c 0.60021,-0.537444 0.81548,-0.603597 1.65589,-0.508869 0.7056,0.07953 1.14783,0.290712 1.64054,0.783415 0.78294,0.782946 0.78202,0.761455 0.33934,7.892784 -0.41757,6.726884 -0.53385,8.007209 -0.68568,7.54958 z"
           id="path6146-1-7-2-6-4-5-2-7-4-7-9-0-6-7-1-5-6-2-3-4-5-09"
           inkscape:connector-curvature="0" />
        <path
           style="fill:#00adb5;fill-opacity:1;stroke-width:0.0991464"
           d="m 145.58989,-55.433647 c -0.014,-0.233164 0.38344,-6.777443 0.44834,-7.383026 0.0405,-0.377498 0.11437,-1.411463 0.16425,-2.2977 l 0.0907,-1.611339 0.27481,0.07544 c 0.41715,0.11452 0.62564,0.243768 0.97658,0.605399 0.68014,0.700863 0.82027,1.502545 0.48428,2.770624 -0.10002,0.377499 -0.20664,0.720679 -0.23693,0.762623 -0.0303,0.04194 -0.16355,0.47092 -0.29614,0.953279 -0.13259,0.482358 -0.29008,0.997129 -0.34998,1.143934 -0.0599,0.146804 -0.2115,0.627257 -0.33688,1.067671 -0.19792,0.695225 -0.56688,1.915909 -1.07185,3.546196 -0.078,0.251666 -0.14418,0.416769 -0.14717,0.366897 z"
           id="path6150-5-7-3-3-8-6-3-4-0-7-3-2-4-3-4-8-3-9-2-1-2-08"
           inkscape:connector-curvature="0" />
      </g>
      <g
         transform="matrix(2.2887955,0,0,2.454636,-287.8498,240.5838)"
         id="g6180-3-1-3-3-0-1-9-7-7-2-0-3-4-5-3-8-4-1-2-23"
         style="fill:#00adb5;fill-opacity:1;stroke-width:1.30007">
        <path
           style="fill:#00adb5;fill-opacity:1;stroke-width:0.28043"
           d="m 142.86752,-58.469024 c -0.93121,-1.356964 -2.7839,-2.954907 -4.47943,-3.863495 l -1.72562,-0.924711 -1.11467,-4.31306 c -0.61308,-2.372183 -1.12203,-4.65279 -1.13102,-5.068017 -0.0185,-0.85248 0.57271,-1.884171 1.31597,-2.296612 1.11583,-0.619194 3.1139,-0.170172 3.64314,0.818713 0.26005,0.485917 0.92157,2.901067 1.67505,6.115498 0.25028,1.067726 0.8952,3.77633 1.43317,6.019121 0.53797,2.24279 0.95052,4.105397 0.91679,4.139127 -0.0337,0.03373 -0.27375,-0.248224 -0.53338,-0.626564 z"
           id="path6144-6-6-4-1-8-3-7-9-3-7-1-4-0-1-6-2-1-0-3-6-37"
           inkscape:connector-curvature="0" />
        <path
           style="fill:#00adb5;fill-opacity:1;stroke-width:0.28043"
           d="m 144.70058,-56.137083 c -0.0787,-0.237272 -0.33805,-1.256466 -0.57629,-2.264874 -0.23824,-1.008408 -1.02504,-4.308653 -1.74844,-7.333877 l -1.31526,-5.500409 0.6899,-0.61775 c 0.60021,-0.537444 0.81548,-0.603597 1.65589,-0.508869 0.7056,0.07953 1.14783,0.290712 1.64054,0.783415 0.78294,0.782946 0.78202,0.761455 0.33934,7.892784 -0.41757,6.726884 -0.53385,8.007209 -0.68568,7.54958 z"
           id="path6146-1-7-2-6-4-5-2-7-4-7-9-0-9-1-4-6-5-9-0-5-8"
           inkscape:connector-curvature="0" />
        <path
           style="fill:#00adb5;fill-opacity:1;stroke-width:0.0991464"
           d="m 145.58989,-55.433647 c -0.014,-0.233164 0.38344,-6.777443 0.44834,-7.383026 0.0405,-0.377498 0.11437,-1.411463 0.16425,-2.2977 l 0.0907,-1.611339 0.27481,0.07544 c 0.41715,0.11452 0.62564,0.243768 0.97658,0.605399 0.68014,0.700863 0.82027,1.502545 0.48428,2.770624 -0.10002,0.377499 -0.20664,0.720679 -0.23693,0.762623 -0.0303,0.04194 -0.16355,0.47092 -0.29614,0.953279 -0.13259,0.482358 -0.29008,0.997129 -0.34998,1.143934 -0.0599,0.146804 -0.2115,0.627257 -0.33688,1.067671 -0.19792,0.695225 -0.56688,1.915909 -1.07185,3.546196 -0.078,0.251666 -0.14418,0.416769 -0.14717,0.366897 z"
           id="path6150-5-7-3-3-8-6-3-4-0-7-3-2-55-2-5-6-4-3-6-6-2"
           inkscape:connector-curvature="0" />
      </g>
    </g>
  </g>
</svg>
